<?xml version="1.0" encoding="utf-8"?>
<!-- Generator: Adobe Illustrator 25.2.3, SVG Export Plug-In . SVG Version: 6.00 Build 0)  -->
<svg version="1.1" xmlns="http://www.w3.org/2000/svg" xmlns:xlink="http://www.w3.org/1999/xlink" x="0px" y="0px"
	 viewBox="0 0 841.89 595.28" style="enable-background:new 0 0 841.89 595.28;" xml:space="preserve">
<style type="text/css">
	.st0{fill:#F5C343;}
	.st1{fill:#3366FF;}
	.st2{fill:#FFFFFF;}
	.st3{fill:#562D11;}
</style>
<g id="griglie">
</g>
<g id="smile">
</g>
<g id="vignetta">
	<g>
		<polygon points="290.52,247.55 290.52,270.97 267.56,270.97 267.56,293.65 290.52,293.65 290.52,361.47 313.2,361.47 
			313.2,247.55 		"/>
		<path d="M506.3,247.55v0.06h-34.62h-22.65v22.68v22.89v22.68v45.56h22.65v-45.56h34.62h11.34h11.34v-68.3H506.3z M471.69,293.17
			v-22.89h34.62v22.89H471.69z"/>
		<g>
			<rect x="551.66" y="338.73" width="22.68" height="22.68"/>
			<rect x="551.67" y="233.8" width="22.65" height="89.04"/>
		</g>
		<polygon points="403.68,233.8 403.68,303.25 358.27,303.25 358.27,233.8 335.59,233.8 335.59,325.92 358.01,325.92 358.03,361.47 
			403.45,325.92 403.68,325.92 403.68,325.92 426.36,325.92 426.36,233.8 		"/>
	</g>
</g>
</svg>
