<svg xmlns="http://www.w3.org/2000/svg" viewBox="0 0 306.78 127.67"><g id="Livello_2" data-name="Livello 2"><g id="vignetta"><polygon points="22.96 13.74 22.96 37.17 0 37.17 0 59.85 22.96 59.85 22.96 127.67 45.64 127.67 45.64 13.74 22.96 13.74"/><path d="M238.74,13.74v.07H181.48v113.8h22.65V82.05h57.29V13.74ZM204.13,59.37V36.48h34.61V59.37Z"/><rect x="284.1" y="104.93" width="22.68" height="22.68"/><rect x="284.11" width="22.65" height="89.04"/><polygon points="136.12 0 136.12 69.44 90.71 69.44 90.71 0 68.03 0 68.03 92.12 90.46 92.12 90.47 127.67 135.89 92.12 136.12 92.12 136.12 92.12 158.8 92.12 158.8 0 136.12 0"/></g></g></svg>