<?xml version="1.0" encoding="utf-8"?>
<!-- Generator: Adobe Illustrator 25.2.3, SVG Export Plug-In . SVG Version: 6.00 Build 0)  -->
<svg version="1.1" xmlns="http://www.w3.org/2000/svg" xmlns:xlink="http://www.w3.org/1999/xlink" x="0px" y="0px"
	 viewBox="0 0 841.89 595.28" style="enable-background:new 0 0 841.89 595.28;" xml:space="preserve">
<style type="text/css">
	.st0{fill:#F5C343;}
	.st1{fill:#3366FF;}
	.st2{fill:#FFFFFF;}
	.st3{fill:#562D11;}
</style>
<g id="griglie">
</g>
<g id="smile">
	<polygon class="st0" points="369.91,205.99 440.81,205.99 440.81,220.1 468.92,220.1 468.92,234.14 483.03,234.14 483.03,319.07 
		468.88,319.07 468.88,347.14 440.81,347.14 440.81,361.25 369.91,361.25 369.91,347.14 341.77,347.14 341.77,319.07 327.65,319.07 
		327.69,234.14 341.8,234.14 341.8,220.1 369.91,220.1 	"/>
	<g>
		<rect x="369.91" y="191.86" width="70.9" height="14.11"/>
		<rect x="341.84" y="205.99" width="28.07" height="14.11"/>
		<rect x="440.81" y="205.99" width="28.07" height="14.11"/>
		<rect x="341.84" y="347.14" width="28.07" height="14.11"/>
		<rect x="327.65" y="319.07" width="14.11" height="28.07"/>
		<rect x="468.88" y="319.07" width="14.11" height="28.07"/>
		<rect x="440.81" y="347.14" width="28.07" height="14.11"/>
		<rect x="369.91" y="361.25" width="70.9" height="14.11"/>
		<polygon points="483.03,234.14 483.03,220.1 468.92,220.1 468.92,234.14 341.8,234.14 341.8,220.1 327.69,220.1 327.69,234.14 
			313.8,234.14 313.8,248.17 313.8,248.91 313.8,263.21 313.8,263.68 313.8,277.98 313.8,319.07 327.65,319.07 327.65,277.98 
			334.48,277.98 334.48,292.75 376.43,292.75 376.43,277.98 389.15,277.98 389.15,263.68 400.2,263.68 400.2,248.91 410.53,248.91 
			410.53,263.68 421.58,263.68 421.58,277.98 434.3,277.98 434.3,292.75 476.24,292.75 476.24,277.98 483.03,277.98 483.03,319.07 
			496.93,319.07 496.93,277.98 496.93,263.68 496.93,263.21 496.93,248.91 496.93,248.17 496.93,234.14 		"/>
		<rect x="355.93" y="310.55" class="st3" width="14.03" height="14.03"/>
		<polygon class="st3" points="440.87,338.7 440.87,324.59 454.77,324.59 454.77,310.55 440.73,310.55 440.73,324.59 369.97,324.59 
			369.97,338.7 		"/>
	</g>
</g>
<g id="vignetta">
</g>
</svg>
