<svg xmlns="http://www.w3.org/2000/svg" viewBox="0 0 183.14 183.5"><defs><style>.cls-1{fill:#f5c343;}.cls-2{fill:#562d11;}</style></defs><g id="Livello_2" data-name="Livello 2"><g id="smile"><polygon class="cls-1" points="56.12 14.13 127.02 14.13 127.02 28.24 155.13 28.24 155.13 42.27 169.24 42.27 169.24 127.2 155.09 127.2 155.09 155.27 127.02 155.27 127.02 169.38 56.12 169.38 56.12 155.27 27.97 155.27 27.97 127.2 13.86 127.2 13.9 42.27 28.01 42.27 28.01 28.24 56.12 28.24 56.12 14.13"/><rect x="56.12" width="70.9" height="14.11"/><rect x="28.05" y="14.13" width="28.07" height="14.11"/><rect x="127.02" y="14.13" width="28.07" height="14.11"/><rect x="28.05" y="155.27" width="28.07" height="14.11"/><rect x="13.86" y="127.2" width="14.11" height="28.07"/><rect x="155.09" y="127.2" width="14.11" height="28.07"/><rect x="127.02" y="155.27" width="28.07" height="14.11"/><rect x="56.12" y="169.38" width="70.9" height="14.11"/><polygon points="169.24 42.27 169.24 28.24 155.13 28.24 155.13 42.27 28.01 42.27 28.01 28.24 13.9 28.24 13.9 42.27 0 42.27 0 56.31 0 57.04 0 71.35 0 71.81 0 86.12 0 127.2 13.86 127.2 13.86 86.12 20.69 86.12 20.69 100.89 62.63 100.89 62.63 86.12 75.35 86.12 75.35 71.81 86.41 71.81 86.41 57.04 96.73 57.04 96.73 71.81 107.78 71.81 107.78 86.12 120.5 86.12 120.5 100.89 162.45 100.89 162.45 86.12 169.24 86.12 169.24 127.2 183.13 127.2 183.13 86.12 183.13 71.81 183.13 71.35 183.13 57.04 183.13 56.31 183.13 42.27 169.24 42.27"/><rect class="cls-2" x="42.14" y="118.69" width="14.03" height="14.03"/><polygon class="cls-2" points="127.07 146.84 127.07 132.73 140.97 132.73 140.97 118.69 126.94 118.69 126.94 132.73 56.17 132.73 56.17 146.84 127.07 146.84"/></g></g></svg>